<svg xmlns="http://www.w3.org/2000/svg" width="600" height="600">
  <defs>
    <linearGradient id="g" x1="0" y1="0" x2="1" y2="1">
      <stop offset="0%" stop-color="#F2D2D7" stop-opacity="0.25"/>
      <stop offset="100%" stop-color="#DDCDE9" stop-opacity="0.25"/>
    </linearGradient>
  </defs>
  <rect width="100%" height="100%" fill="url(#g)"/>
  <!-- Simple soft paisley-like motifs -->
  <g fill="none" stroke="#5E6A7A" stroke-opacity="0.10">
    <path d="M120,140c60,-80 170,-40 160,40c-10,80 -120,130 -190,80c-30,-22 -30,-60 30,-120z" fill="#FFFFFF" fill-opacity="0.25"/>
    <path d="M360,380c60,-80 170,-40 160,40c-10,80 -120,130 -190,80c-30,-22 -30,-60 30,-120z" fill="#FFFFFF" fill-opacity="0.25"/>
    <circle cx="180" cy="180" r="60"/>
    <circle cx="420" cy="420" r="60"/>
    <path d="M90 500 Q 150 450 210 500" />
    <path d="M390 100 Q 450 50 510 100" />
  </g>
</svg>
